<svg width="144" height="27" viewBox="0 0 144 27" fill="none" xmlns="http://www.w3.org/2000/svg">
<path d="M3.924 26.648C2.748 26.648 1.836 26.42 1.188 25.964C0.564 25.508 0.252 24.896 0.252 24.128C0.252 23.456 0.48 22.94 0.936 22.58C1.416 22.22 1.968 22.04 2.592 22.04C3.216 22.04 3.768 22.184 4.248 22.472C4.728 22.736 5.172 23.204 5.58 23.876L6.228 24.992C6.348 25.16 6.492 25.244 6.66 25.244C6.852 25.244 6.984 25.136 7.056 24.92C7.2 24.44 7.296 23.744 7.344 22.832C7.416 21.896 7.452 20.768 7.452 19.448C7.452 17.936 7.416 15.992 7.344 13.616C7.272 11.24 7.2 8.312 7.128 4.832C7.128 3.8 6.744 3.152 5.976 2.888L5.148 2.6V2.24H14.58V2.6L13.788 2.888C13.356 3.056 13.056 3.284 12.888 3.572C12.744 3.836 12.672 4.22 12.672 4.724V11.852C12.672 14.204 12.564 16.148 12.348 17.684C12.132 19.22 11.784 20.552 11.304 21.68C10.704 23.288 9.72 24.524 8.352 25.388C7.008 26.228 5.532 26.648 3.924 26.648ZM19.933 26.54C18.541 26.54 17.365 26.144 16.405 25.352C15.469 24.56 15.001 23.42 15.001 21.932C15.001 20.804 15.577 19.772 16.729 18.836C17.881 17.876 19.693 17.156 22.165 16.676C22.549 16.604 22.981 16.532 23.461 16.46C23.941 16.364 24.445 16.268 24.973 16.172V13.328C24.973 11.696 24.769 10.556 24.361 9.908C23.977 9.236 23.365 8.9 22.525 8.9C21.949 8.9 21.493 9.092 21.157 9.476C20.821 9.836 20.605 10.472 20.509 11.384L20.437 11.78C20.389 12.812 20.137 13.568 19.681 14.048C19.225 14.528 18.661 14.768 17.989 14.768C17.365 14.768 16.849 14.576 16.441 14.192C16.033 13.808 15.829 13.292 15.829 12.644C15.829 11.66 16.165 10.832 16.837 10.16C17.533 9.488 18.445 8.984 19.573 8.648C20.701 8.312 21.925 8.144 23.245 8.144C25.381 8.144 27.025 8.672 28.177 9.728C29.353 10.76 29.941 12.452 29.941 14.804V22.76C29.941 23.84 30.445 24.38 31.453 24.38H32.245L32.569 24.668C32.113 25.244 31.609 25.688 31.057 26C30.529 26.312 29.773 26.468 28.789 26.468C27.733 26.468 26.893 26.228 26.269 25.748C25.669 25.244 25.273 24.584 25.081 23.768C24.361 24.536 23.617 25.196 22.849 25.748C22.105 26.276 21.133 26.54 19.933 26.54ZM22.129 24.344C22.609 24.344 23.053 24.236 23.461 24.02C23.893 23.78 24.397 23.42 24.973 22.94V16.892C24.733 16.94 24.493 16.988 24.253 17.036C24.013 17.084 23.737 17.132 23.425 17.18C22.321 17.468 21.433 17.96 20.761 18.656C20.113 19.328 19.789 20.24 19.789 21.392C19.789 22.376 20.017 23.12 20.473 23.624C20.929 24.104 21.481 24.344 22.129 24.344ZM42.2378 26.54C40.6058 26.54 39.1178 26.192 37.7738 25.496C36.4538 24.776 35.3978 23.744 34.6058 22.4C33.8378 21.032 33.4538 19.364 33.4538 17.396C33.4538 15.452 33.8738 13.796 34.7138 12.428C35.5778 11.036 36.7178 9.98 38.1338 9.26C39.5738 8.516 41.1458 8.144 42.8498 8.144C44.2418 8.144 45.4178 8.372 46.3778 8.828C47.3378 9.284 48.0698 9.884 48.5738 10.628C49.0778 11.348 49.3298 12.104 49.3298 12.896C49.3298 13.568 49.1258 14.096 48.7178 14.48C48.3098 14.84 47.7818 15.02 47.1338 15.02C46.4378 15.02 45.8738 14.768 45.4418 14.264C45.0098 13.76 44.7578 13.1 44.6858 12.284C44.6618 11.756 44.6738 11.312 44.7218 10.952C44.7698 10.568 44.7698 10.184 44.7218 9.8C44.6258 9.392 44.4698 9.128 44.2538 9.008C44.0618 8.864 43.7858 8.792 43.4258 8.792C41.9618 8.792 40.8218 9.428 40.0058 10.7C39.2138 11.972 38.8178 14 38.8178 16.784C38.8178 19.208 39.2618 21.068 40.1498 22.364C41.0618 23.636 42.4538 24.272 44.3258 24.272C45.4538 24.272 46.3658 24.068 47.0618 23.66C47.7578 23.252 48.4298 22.64 49.0778 21.824L49.4378 22.112C48.8378 23.528 47.9138 24.62 46.6658 25.388C45.4178 26.156 43.9418 26.54 42.2378 26.54ZM50.3975 26V25.64L50.9375 25.46C51.7535 25.196 52.1615 24.608 52.1615 23.696V4.436C52.1615 3.956 52.0655 3.596 51.8735 3.356C51.6815 3.116 51.3455 2.924 50.8655 2.78L50.3975 2.672V2.312L56.9855 0.763999L57.4175 1.088L57.3095 6.128V23.696C57.3095 24.656 57.7055 25.256 58.4975 25.496L59.0015 25.64V26H50.3975ZM63.7535 26L57.3455 17L64.0055 10.844C64.3175 10.556 64.4975 10.256 64.5455 9.944C64.6175 9.608 64.4135 9.368 63.9335 9.224L63.3215 9.044V8.684H68.6855V9.044L67.6055 9.332C67.0775 9.5 66.6455 9.704 66.3095 9.944C65.9975 10.16 65.6135 10.472 65.1575 10.88L61.1255 14.66L67.5695 23.624C67.9535 24.152 68.3135 24.56 68.6495 24.848C68.9855 25.136 69.4175 25.376 69.9455 25.568L70.0895 25.64V26H63.7535ZM79.5946 26.54C78.1546 26.54 76.7986 26.132 75.5266 25.316C74.2786 24.5 73.2706 23.216 72.5026 21.464C71.7346 19.712 71.3506 17.432 71.3506 14.624C71.3506 11.792 71.7346 9.5 72.5026 7.748C73.2706 5.972 74.2786 4.676 75.5266 3.86C76.7986 3.044 78.1546 2.636 79.5946 2.636C81.0346 2.636 82.3786 3.044 83.6266 3.86C84.8986 4.676 85.9186 5.972 86.6866 7.748C87.4786 9.5 87.8746 11.792 87.8746 14.624C87.8746 17.432 87.4786 19.712 86.6866 21.464C85.9186 23.216 84.8986 24.5 83.6266 25.316C82.3786 26.132 81.0346 26.54 79.5946 26.54ZM79.5946 25.82C80.1946 25.82 80.6986 25.664 81.1066 25.352C81.5386 25.04 81.8866 24.476 82.1506 23.66C82.4146 22.844 82.6066 21.716 82.7266 20.276C82.8466 18.812 82.9066 16.928 82.9066 14.624C82.9066 12.32 82.8466 10.436 82.7266 8.972C82.6066 7.484 82.4146 6.332 82.1506 5.516C81.8866 4.7 81.5386 4.136 81.1066 3.824C80.6986 3.512 80.1946 3.356 79.5946 3.356C78.9946 3.356 78.4786 3.512 78.0466 3.824C77.6386 4.136 77.3026 4.7 77.0386 5.516C76.7746 6.308 76.5826 7.448 76.4626 8.936C76.3426 10.4 76.2826 12.296 76.2826 14.624C76.2826 16.928 76.3426 18.812 76.4626 20.276C76.5826 21.74 76.7746 22.88 77.0386 23.696C77.3026 24.488 77.6386 25.04 78.0466 25.352C78.4786 25.664 78.9946 25.82 79.5946 25.82ZM91.1129 9.224L91.3649 4.112C92.0849 3.704 92.9729 3.356 94.0289 3.068C95.1089 2.78 96.3209 2.636 97.6649 2.636C99.5849 2.636 101.133 2.912 102.309 3.464C103.485 3.992 104.349 4.724 104.901 5.66C105.453 6.596 105.729 7.652 105.729 8.828C105.729 10.484 104.925 12.104 103.317 13.688C101.709 15.248 99.5129 16.976 96.7289 18.872C96.2009 19.256 95.5769 19.724 94.8569 20.276C94.1369 20.828 93.4649 21.368 92.8409 21.896H106.341V26H90.5009V22.976C91.3649 22.136 92.2049 21.308 93.0209 20.492C93.8609 19.652 94.6529 18.86 95.3969 18.116C97.1249 16.34 98.4089 14.768 99.2489 13.4C100.113 12.008 100.545 10.52 100.545 8.936C100.545 7.28 100.245 5.948 99.6449 4.94C99.0449 3.908 98.1449 3.392 96.9449 3.392C96.2009 3.392 95.5049 3.584 94.8569 3.968C94.2329 4.328 93.6809 4.964 93.2009 5.876L91.4729 9.224H91.1129ZM116.933 26.54C115.325 26.54 114.005 26.36 112.973 26C111.965 25.64 110.969 25.22 109.985 24.74L110.381 20.06H110.741L112.325 22.976C113.381 24.872 114.845 25.82 116.717 25.82C117.821 25.82 118.709 25.364 119.381 24.452C120.077 23.516 120.425 21.956 120.425 19.772C120.425 17.876 120.137 16.52 119.561 15.704C118.985 14.864 118.001 14.444 116.609 14.444H114.449V13.724H116.357C117.629 13.724 118.541 13.34 119.093 12.572C119.669 11.804 119.957 10.472 119.957 8.576C119.957 6.728 119.681 5.42 119.129 4.652C118.577 3.86 117.845 3.464 116.933 3.464C116.021 3.464 115.253 3.728 114.629 4.256C114.029 4.784 113.537 5.408 113.153 6.128L111.533 9.152L111.173 9.116L111.533 3.824C112.301 3.488 113.153 3.212 114.089 2.996C115.049 2.756 116.117 2.636 117.293 2.636C119.813 2.636 121.721 3.188 123.017 4.292C124.337 5.372 124.997 6.728 124.997 8.36C124.997 9.536 124.493 10.664 123.485 11.744C122.477 12.8 120.893 13.532 118.733 13.94C121.181 14.156 122.957 14.816 124.061 15.92C125.165 17.024 125.717 18.356 125.717 19.916C125.717 21.164 125.357 22.292 124.637 23.3C123.941 24.308 122.933 25.1 121.613 25.676C120.317 26.252 118.757 26.54 116.933 26.54ZM130.513 26L130.153 25.64L142.609 6.92H127.921V3.176H143.761V5.516L135.265 26H130.513Z" fill="black"/>
</svg>
