<svg width="144" height="27" viewBox="0 0 144 27" fill="none" xmlns="http://www.w3.org/2000/svg">
<path d="M 3.9 26.6 C 2.7 26.6 1.8 26.4 1.2 26 C 0.6 25.5 0.3 24.9 0.3 24.1 C 0.3 23.5 0.5 22.9 0.9 22.6 C 1.4 22.2 2 22 2.6 22 C 3.2 22 3.8 22.2 4.2 22.5 C 4.7 22.7 5.2 23.2 5.6 23.9 L 6.2 25 C 6.3 25.2 6.5 25.2 6.7 25.2 C 6.9 25.2 7 25.1 7.1 24.9 C 7.2 24.4 7.3 23.7 7.3 22.8 C 7.4 21.9 7.5 20.8 7.5 19.4 C 7.5 17.9 7.4 16 7.3 13.6 C 7.3 11.2 7.2 8.3 7.1 4.8 C 7.1 3.8 6.7 3.2 6 2.9 L 5.1 2.6 V 2.2 H 14.6 V 2.6 L 13.8 2.9 C 13.4 3.1 13.1 3.3 12.9 3.6 C 12.7 3.8 12.7 4.2 12.7 4.7 V 11.9 C 12.7 14.2 12.6 16.1 12.3 17.7 C 12.1 19.2 11.8 20.6 11.3 21.7 C 10.7 23.3 9.7 24.5 8.4 25.4 C 7 26.2 5.5 26.6 3.9 26.6 Z M 19.9 26.5 C 18.5 26.5 17.4 26.1 16.4 25.4 C 15.5 24.6 15 23.4 15 21.9 C 15 20.8 15.6 19.8 16.7 18.8 C 17.9 17.9 19.7 17.2 22.2 16.7 C 22.5 16.6 23 16.5 23.5 16.5 C 23.9 16.4 24.4 16.3 25 16.2 V 13.3 C 25 11.7 24.8 10.6 24.4 9.9 C 24 9.2 23.4 8.9 22.5 8.9 C 21.9 8.9 21.5 9.1 21.2 9.5 C 20.8 9.8 20.6 10.5 20.5 11.4 L 20.4 11.8 C 20.4 12.8 20.1 13.6 19.7 14 C 19.2 14.5 18.7 14.8 18 14.8 C 17.4 14.8 16.8 14.6 16.4 14.2 C 16 13.8 15.8 13.3 15.8 12.6 C 15.8 11.7 16.2 10.8 16.8 10.2 C 17.5 9.5 18.4 9 19.6 8.6 C 20.7 8.3 21.9 8.1 23.2 8.1 C 25.4 8.1 27 8.7 28.2 9.7 C 29.4 10.8 29.9 12.5 29.9 14.8 V 22.8 C 29.9 23.8 30.4 24.4 31.5 24.4 H 32.2 L 32.6 24.7 C 32.1 25.2 31.6 25.7 31.1 26 C 30.5 26.3 29.8 26.5 28.8 26.5 C 27.7 26.5 26.9 26.2 26.3 25.7 C 25.7 25.2 25.3 24.6 25.1 23.8 C 24.4 24.5 23.6 25.2 22.8 25.7 C 22.1 26.3 21.1 26.5 19.9 26.5 Z M 22.1 24.3 C 22.6 24.3 23.1 24.2 23.5 24 C 23.9 23.8 24.4 23.4 25 22.9 V 16.9 C 24.7 16.9 24.5 17 24.3 17 C 24 17.1 23.7 17.1 23.4 17.2 C 22.3 17.5 21.4 18 20.8 18.7 C 20.1 19.3 19.8 20.2 19.8 21.4 C 19.8 22.4 20 23.1 20.5 23.6 C 20.9 24.1 21.5 24.3 22.1 24.3 Z M 42.2 26.5 C 40.6 26.5 39.1 26.2 37.8 25.5 C 36.5 24.8 35.4 23.7 34.6 22.4 C 33.8 21 33.5 19.4 33.5 17.4 C 33.5 15.5 33.9 13.8 34.7 12.4 C 35.6 11 36.7 10 38.1 9.3 C 39.6 8.5 41.1 8.1 42.8 8.1 C 44.2 8.1 45.4 8.4 46.4 8.8 C 47.3 9.3 48.1 9.9 48.6 10.6 C 49.1 11.3 49.3 12.1 49.3 12.9 C 49.3 13.6 49.1 14.1 48.7 14.5 C 48.3 14.8 47.8 15 47.1 15 C 46.4 15 45.9 14.8 45.4 14.3 C 45 13.8 44.8 13.1 44.7 12.3 C 44.7 11.8 44.7 11.3 44.7 11 C 44.8 10.6 44.8 10.2 44.7 9.8 C 44.6 9.4 44.5 9.1 44.3 9 C 44.1 8.9 43.8 8.8 43.4 8.8 C 42 8.8 40.8 9.4 40 10.7 C 39.2 12 38.8 14 38.8 16.8 C 38.8 19.2 39.3 21.1 40.1 22.4 C 41.1 23.6 42.5 24.3 44.3 24.3 C 45.5 24.3 46.4 24.1 47.1 23.7 C 47.8 23.3 48.4 22.6 49.1 21.8 L 49.4 22.1 C 48.8 23.5 47.9 24.6 46.7 25.4 C 45.4 26.2 43.9 26.5 42.2 26.5 Z M 50.4 26 V 25.6 L 50.9 25.5 C 51.8 25.2 52.2 24.6 52.2 23.7 V 4.4 C 52.2 4 52.1 3.6 51.9 3.4 C 51.7 3.1 51.3 2.9 50.9 2.8 L 50.4 2.7 V 2.3 L 57 0.8 L 57.4 1.1 L 57.3 6.1 V 23.7 C 57.3 24.7 57.7 25.3 58.5 25.5 L 59 25.6 V 26 H 50.4 Z M 63.8 26 L 57.3 17 L 64 10.8 C 64.3 10.6 64.5 10.3 64.5 9.9 C 64.6 9.6 64.4 9.4 63.9 9.2 L 63.3 9 V 8.7 H 68.7 V 9 L 67.6 9.3 C 67.1 9.5 66.6 9.7 66.3 9.9 C 66 10.2 65.6 10.5 65.2 10.9 L 61.1 14.7 L 67.6 23.6 C 68 24.2 68.3 24.6 68.6 24.8 C 69 25.1 69.4 25.4 69.9 25.6 L 70.1 25.6 V 26 H 63.8 Z M 79.6 26.5 C 78.2 26.5 76.8 26.1 75.5 25.3 C 74.3 24.5 73.3 23.2 72.5 21.5 C 71.7 19.7 71.4 17.4 71.4 14.6 C 71.4 11.8 71.7 9.5 72.5 7.7 C 73.3 6 74.3 4.7 75.5 3.9 C 76.8 3 78.2 2.6 79.6 2.6 C 81 2.6 82.4 3 83.6 3.9 C 84.9 4.7 85.9 6 86.7 7.7 C 87.5 9.5 87.9 11.8 87.9 14.6 C 87.9 17.4 87.5 19.7 86.7 21.5 C 85.9 23.2 84.9 24.5 83.6 25.3 C 82.4 26.1 81 26.5 79.6 26.5 Z M 79.6 25.8 C 80.2 25.8 80.7 25.7 81.1 25.4 C 81.5 25 81.9 24.5 82.2 23.7 C 82.4 22.8 82.6 21.7 82.7 20.3 C 82.8 18.8 82.9 16.9 82.9 14.6 C 82.9 12.3 82.8 10.4 82.7 9 C 82.6 7.5 82.4 6.3 82.2 5.5 C 81.9 4.7 81.5 4.1 81.1 3.8 C 80.7 3.5 80.2 3.4 79.6 3.4 C 79 3.4 78.5 3.5 78 3.8 C 77.6 4.1 77.3 4.7 77 5.5 C 76.8 6.3 76.6 7.4 76.5 8.9 C 76.3 10.4 76.3 12.3 76.3 14.6 C 76.3 16.9 76.3 18.8 76.5 20.3 C 76.6 21.7 76.8 22.9 77 23.7 C 77.3 24.5 77.6 25 78 25.4 C 78.5 25.7 79 25.8 79.6 25.8 Z M 91.1 9.2 L 91.4 4.1 C 92.1 3.7 93 3.4 94 3.1 C 95.1 2.8 96.3 2.6 97.7 2.6 C 99.6 2.6 101.1 2.9 102.3 3.5 C 103.5 4 104.3 4.7 104.9 5.7 C 105.5 6.6 105.7 7.7 105.7 8.8 C 105.7 10.5 104.9 12.1 103.3 13.7 C 101.7 15.2 99.5 17 96.7 18.9 C 96.2 19.3 95.6 19.7 94.9 20.3 C 94.1 20.8 93.5 21.4 92.8 21.9 H 106.3 V 26 H 90.5 V 23 C 91.4 22.1 92.2 21.3 93 20.5 C 93.9 19.7 94.7 18.9 95.4 18.1 C 97.1 16.3 98.4 14.8 99.2 13.4 C 100.1 12 100.5 10.5 100.5 8.9 C 100.5 7.3 100.2 5.9 99.6 4.9 C 99 3.9 98.1 3.4 96.9 3.4 C 96.2 3.4 95.5 3.6 94.9 4 C 94.2 4.3 93.7 5 93.2 5.9 L 91.5 9.2 H 91.1 Z M 116.9 26.5 C 115.3 26.5 114 26.4 113 26 C 112 25.6 111 25.2 110 24.7 L 110.4 20.1 H 110.7 L 112.3 23 C 113.4 24.9 114.8 25.8 116.7 25.8 C 117.8 25.8 118.7 25.4 119.4 24.5 C 120.1 23.5 120.4 22 120.4 19.8 C 120.4 17.9 120.1 16.5 119.6 15.7 C 119 14.9 118 14.4 116.6 14.4 H 114.4 V 13.7 H 116.4 C 117.6 13.7 118.5 13.3 119.1 12.6 C 119.7 11.8 120 10.5 120 8.6 C 120 6.7 119.7 5.4 119.1 4.7 C 118.6 3.9 117.8 3.5 116.9 3.5 C 116 3.5 115.3 3.7 114.6 4.3 C 114 4.8 113.5 5.4 113.2 6.1 L 111.5 9.2 L 111.2 9.1 L 111.5 3.8 C 112.3 3.5 113.2 3.2 114.1 3 C 115 2.8 116.1 2.6 117.3 2.6 C 119.8 2.6 121.7 3.2 123 4.3 C 124.3 5.4 125 6.7 125 8.4 C 125 9.5 124.5 10.7 123.5 11.7 C 122.5 12.8 120.9 13.5 118.7 13.9 C 121.2 14.2 123 14.8 124.1 15.9 C 125.2 17 125.7 18.4 125.7 19.9 C 125.7 21.2 125.4 22.3 124.6 23.3 C 123.9 24.3 122.9 25.1 121.6 25.7 C 120.3 26.3 118.8 26.5 116.9 26.5 Z M 130.5 26 L 130.2 25.6 L 142.6 6.9 H 127.9 V 3.2 H 143.8 V 5.5 L 135.3 26 H 130.5 Z" fill="#fef5e4"/>
</svg>
